<?xml version="1.0" standalone="no"?>
<!DOCTYPE svg PUBLIC "-//W3C//DTD SVG 20010904//EN"
 "http://www.w3.org/TR/2001/REC-SVG-20010904/DTD/svg10.dtd">
<svg version="1.0" xmlns="http://www.w3.org/2000/svg"
 width="317.000000pt" height="168.000000pt" viewBox="0 0 317.000000 168.000000"
 preserveAspectRatio="xMidYMid meet">

<g transform="translate(0.000000,168.000000) scale(0.100000,-0.100000)"
fill="#000000" stroke="none">
<path d="M919 1630 c-37 -19 -109 -92 -109 -110 0 -6 -16 -10 -35 -10 -98 0
-165 -94 -136 -190 10 -35 60 -89 106 -116 14 -8 19 -21 18 -48 -1 -36 0 -37
25 -31 154 38 355 38 485 -1 11 -3 17 0 17 10 0 8 20 24 43 34 54 24 84 55 97
101 21 77 -33 164 -119 189 -33 10 -44 20 -57 50 -20 49 -70 100 -119 123 -55
25 -167 25 -216 -1z m183 -34 c55 -20 116 -72 148 -128 19 -34 29 -45 32 -33
3 15 5 15 29 -4 39 -30 45 -68 17 -98 -21 -22 -29 -25 -89 -21 -49 3 -82 12
-134 37 -56 28 -65 35 -50 43 9 6 30 8 46 6 42 -6 36 9 -8 21 -24 7 -50 7 -73
1 -31 -8 -55 -22 -159 -92 -65 -44 -141 8 -141 96 0 30 4 36 33 45 18 6 61 12
95 14 34 1 62 3 62 5 0 1 -11 7 -25 12 -21 8 -24 13 -16 28 36 67 146 99 233
68z m-363 -274 c23 -25 36 -82 20 -82 -4 0 -21 12 -38 26 -39 32 -53 81 -39
132 l11 37 11 -43 c6 -24 22 -55 35 -70z m648 -6 c5 -43 3 -48 -35 -86 -22
-22 -45 -40 -51 -40 -6 0 -11 18 -11 43 0 36 5 46 35 70 24 19 35 36 35 54 0
44 22 11 27 -41z m-351 33 c33 -37 103 -71 157 -78 l52 -6 3 -43 3 -42 -43 7
c-55 10 -288 10 -350 1 l-48 -8 0 50 0 50 34 0 c25 0 50 12 93 45 32 24 63 44
69 45 6 0 19 -9 30 -21z"/>
<path d="M322 1225 c-89 -20 -147 -52 -202 -112 -66 -72 -92 -144 -92 -248 0
-116 27 -183 106 -261 71 -70 133 -98 254 -115 84 -12 199 -4 249 16 27 12 33
20 43 69 6 31 10 68 8 83 -3 26 -5 25 -28 -22 -33 -66 -87 -95 -177 -95 -173
0 -305 127 -320 309 -12 145 38 262 133 311 41 21 62 25 139 25 74 0 98 -4
138 -24 53 -26 87 -70 87 -113 0 -16 4 -28 9 -28 8 0 26 178 18 186 -8 8 -203
34 -252 33 -27 0 -78 -7 -113 -14z"/>
<path d="M1623 1226 c-137 -33 -223 -151 -210 -287 10 -113 91 -210 200 -240
67 -18 183 -7 243 24 104 53 162 160 151 277 -11 124 -84 201 -215 229 -65 14
-102 13 -169 -3z m181 -63 c23 -16 51 -49 65 -78 22 -42 26 -63 26 -140 0
-104 -20 -155 -75 -192 -43 -30 -125 -31 -181 -3 -47 24 -95 87 -110 144 -18
65 -7 186 21 231 49 79 170 97 254 38z"/>
<path d="M2075 1230 c-3 -5 3 -10 14 -10 52 0 51 5 51 -245 0 -243 -1 -247
-45 -258 -11 -2 34 -5 100 -5 105 -1 116 1 85 11 l-35 12 -3 120 c-2 72 1 116
6 110 5 -6 49 -55 96 -110 114 -131 138 -145 241 -144 l80 1 -45 15 c-35 12
-74 44 -180 151 l-134 135 89 85 c101 95 140 122 173 122 12 0 22 5 22 10 0 6
-37 10 -90 10 -49 0 -90 -4 -90 -9 0 -5 5 -11 11 -13 19 -6 -3 -37 -96 -128
l-86 -85 3 105 3 105 28 3 c15 2 25 8 22 13 -8 12 -212 12 -220 -1z"/>
<path d="M2906 1229 c-146 -36 -196 -174 -108 -303 15 -21 64 -70 110 -109 97
-80 122 -116 122 -172 0 -47 -19 -79 -60 -100 -85 -44 -191 11 -206 107 -9 56
-20 47 -28 -23 -11 -106 -10 -108 32 -126 47 -20 174 -22 225 -4 104 36 159
133 136 241 -14 68 -53 116 -159 201 -51 41 -98 86 -106 101 -28 54 -14 107
36 133 72 37 167 2 184 -68 12 -48 26 -47 26 2 0 21 3 52 6 69 5 23 2 32 -13
40 -28 15 -153 22 -197 11z"/>
<path d="M1202 1058 c16 -42 19 -69 16 -129 -8 -132 -54 -190 -156 -197 -96
-7 -172 47 -208 145 -16 45 -18 161 -4 197 11 30 0 33 -61 16 -32 -9 -38 -16
-49 -55 -40 -141 50 -297 193 -336 67 -18 183 -7 243 24 95 48 155 149 153
256 -2 92 -12 103 -116 125 l-32 7 21 -53z"/>
<path d="M840 593 c0 -6 5 -15 10 -18 6 -3 10 -15 10 -26 0 -10 5 -19 10 -19
6 0 10 9 10 19 0 11 5 23 10 26 6 3 10 11 10 18 0 6 -7 4 -17 -5 -15 -16 -17
-16 -29 0 -8 10 -14 12 -14 5z"/>
<path d="M966 584 c-9 -8 -16 -19 -16 -24 0 -10 29 -40 38 -40 29 1 46 44 26
65 -19 19 -29 19 -48 -1z m44 -24 c0 -13 -7 -20 -20 -20 -13 0 -20 7 -20 20 0
13 7 20 20 20 13 0 20 -7 20 -20z"/>
<path d="M1132 573 c-2 -40 -32 -47 -32 -8 0 14 -4 25 -10 25 -17 0 -11 -49 8
-59 28 -15 44 2 39 40 l-4 34 -1 -32z"/>
<path d="M1207 593 c-11 -10 -8 -63 3 -63 6 0 10 5 10 12 0 9 3 9 12 0 18 -18
23 -15 25 15 2 35 -30 57 -50 36z m43 -23 c0 -5 -7 -10 -15 -10 -8 0 -15 5
-15 10 0 6 7 10 15 10 8 0 15 -4 15 -10z"/>
<path d="M1390 591 c0 -4 4 -11 9 -16 5 -6 11 -19 14 -30 4 -15 5 -13 6 8 0
15 6 27 11 27 6 0 10 4 10 9 0 5 -11 9 -25 9 -14 0 -25 -4 -25 -7z"/>
<path d="M1508 567 l-16 -33 34 0 c19 1 34 2 34 4 0 5 -30 62 -33 62 -2 0 -10
-15 -19 -33z m32 -7 c0 -5 -4 -10 -10 -10 -5 0 -10 5 -10 10 0 6 5 10 10 10 6
0 10 -4 10 -10z"/>
<path d="M1626 584 c-9 -8 -16 -19 -16 -24 0 -10 29 -40 38 -40 4 0 13 4 21 9
15 10 8 41 -9 41 -14 0 -13 -17 3 -23 6 -3 2 -6 -10 -6 -17 -1 -23 5 -23 19 0
14 7 20 21 20 11 0 17 5 14 10 -9 14 -21 12 -39 -6z"/>
<path d="M1921 565 c0 -22 3 -33 6 -25 3 8 11 18 17 22 7 5 5 13 -6 25 -17 16
-18 15 -17 -22z"/>
<path d="M2040 565 c0 -32 3 -35 28 -34 l27 1 -25 8 c-17 5 -19 8 -7 9 9 1 17
5 17 10 0 5 -8 12 -17 14 -13 3 -11 5 6 6 27 1 21 13 -9 18 -17 2 -20 -3 -20
-32z"/>
<path d="M2340 565 c0 -32 3 -35 28 -34 l27 1 -25 8 c-17 5 -19 8 -7 9 9 1 17
5 17 10 0 5 -8 12 -17 14 -13 3 -12 5 5 6 28 1 19 21 -9 21 -15 0 -19 -7 -19
-35z"/>
<path d="M2450 563 c0 -25 3 -33 9 -24 6 9 11 10 15 2 12 -19 22 -12 24 16 2
26 -11 43 -35 43 -8 0 -13 -14 -13 -37z m40 7 c0 -5 -7 -10 -15 -10 -8 0 -15
5 -15 10 0 6 7 10 15 10 8 0 15 -4 15 -10z"/>
<path d="M2560 565 c0 -32 3 -35 28 -34 l27 1 -25 8 c-24 8 -24 8 -2 9 12 1
22 5 22 10 0 5 -10 12 -22 14 l-23 4 23 2 c30 2 28 21 -3 21 -22 0 -25 -4 -25
-35z"/>
<path d="M1741 563 c-1 -30 2 -33 27 -32 22 1 23 2 5 6 -14 3 -23 13 -26 31
-4 24 -4 24 -6 -5z"/>
<path d="M1840 560 c0 -16 5 -30 10 -30 6 0 10 14 10 30 0 17 -4 30 -10 30 -5
0 -10 -13 -10 -30z"/>
<path d="M1957 568 c-7 -23 -1 -38 14 -38 5 0 9 14 9 30 0 35 -15 40 -23 8z"/>
<path d="M2210 560 c0 -16 5 -30 10 -30 6 0 10 5 10 10 0 6 7 10 15 10 8 0 15
-4 15 -10 0 -5 4 -10 9 -10 5 0 9 14 9 30 -1 17 -5 30 -10 30 -4 0 -8 -4 -8
-10 0 -5 -7 -10 -15 -10 -8 0 -15 5 -15 10 0 6 -4 10 -10 10 -5 0 -10 -13 -10
-30z"/>
<path d="M1745 409 c-1082 -22 -1630 -150 -1588 -373 4 -20 10 -25 22 -20 182
75 383 131 646 179 433 80 1057 144 1695 175 124 6 288 14 365 18 l140 8 -255
7 c-418 11 -666 13 -1025 6z"/>
</g>
</svg>
